<?xml version="1.0" encoding="UTF-8"?>
<svg width="2796px" height="1238px" viewBox="0 0 2796 1238" version="1.1" xmlns="http://www.w3.org/2000/svg" xmlns:xlink="http://www.w3.org/1999/xlink">
    <title>Cobalt.io logo, mark logotype white</title>
    <desc>Cobalt.io logo, mark logotype white.</desc>
    <g id="markLogotype-white" stroke="none" stroke-width="1" fill="none" fill-rule="evenodd">
        <g id="logo" transform="translate(264.000000, 275.000000)" fill="#FFFFFF" fill-rule="nonzero">
            <g id="Group-5">
                <path d="M488.474212,567.885478 C490.040175,570.597478 489.111261,574.065222 486.400423,575.63095 L475.012174,582.209358 C472.348321,583.74887 468.941697,582.83583 467.403749,580.171742 L445.294123,541.868358 C443.853763,539.374222 440.743524,538.407846 438.145634,539.64723 C415.503782,550.441894 390.682414,557.38823 364.485745,559.541558 C361.603217,559.778406 359.380327,562.176718 359.380327,565.070422 L359.380327,609.111494 C359.380327,612.195942 356.880027,614.696406 353.7978,614.696406 L340.674617,614.696406 C337.533655,614.696406 334.989078,612.149838 334.989078,609.008438 L334.989078,565.065902 C334.989078,562.187566 332.773417,559.803718 329.905347,559.576814 C303.689702,557.500326 278.826767,550.650718 256.147867,539.925662 C253.5057,538.676334 250.351185,539.659886 248.890041,542.19199 L227.023489,580.081342 C225.457527,582.796054 221.987649,583.725366 219.275001,582.158734 L207.896695,575.584846 C205.229227,574.04443 204.315674,570.632734 205.856335,567.964126 L227.765357,529.997934 C229.223789,527.471254 228.499091,524.249398 226.099996,522.589654 C204.990673,507.990958 186.655445,489.680438 172.028648,468.586502 C170.387685,466.220734 167.208771,465.509286 164.714797,466.948454 L126.835305,488.827062 C124.138921,490.384654 120.691634,489.460766 119.134708,486.762326 L112.63411,475.500294 C111.045557,472.748518 111.988026,469.23015 114.73953,467.640918 L152.495227,445.833726 C154.990105,444.39275 155.957875,441.279374 154.720828,438.676758 C143.928064,415.969182 137.023551,391.062174 134.903673,364.792838 C134.670541,361.900942 132.268735,359.66987 129.369038,359.66987 L85.7561163,359.66987 C82.6160578,359.66987 80.0705778,357.122398 80.0705778,353.981902 L80.0705778,340.837742 C80.0705778,337.76143 82.5627449,335.267294 85.6386465,335.267294 L129.288616,335.267294 C132.233494,335.267294 134.672348,333.000966 134.909998,330.064774 C137.034394,303.83883 143.928968,278.972502 154.699141,256.29747 C155.946128,253.672254 154.971129,250.531758 152.454564,249.07903 L114.68712,227.259182 C111.964532,225.686222 111.032002,222.20311 112.603387,219.480262 L119.124768,208.182974 C120.687116,205.476398 124.147054,204.549798 126.852473,206.11191 L164.721122,227.990518 C167.209675,229.427878 170.382263,228.718238 172.019611,226.356086 C186.656348,205.243166 205.008745,186.920894 226.137948,172.313158 C228.51626,170.668782 229.234633,167.475854 227.787947,164.97087 L205.85995,126.972134 C204.317481,124.29991 205.232841,120.88279 207.903924,119.339662 L219.284941,112.765774 C221.992168,111.20095 225.454816,112.128454 227.018068,114.838646 L248.920764,152.790374 C250.363835,155.29355 253.48311,156.266254 256.09365,155.030486 C278.774357,144.29639 303.640907,137.438646 329.861973,135.357638 C332.753538,135.128022 334.989078,132.724286 334.989078,129.821542 L334.989078,85.9802536 C334.989078,82.8054056 337.55986,80.2326216 340.732448,80.2326216 L353.773403,80.2326216 C356.870088,80.2326216 359.380327,82.7448376 359.380327,85.8419416 L359.380327,129.85951 C359.380327,132.753214 361.603217,135.151526 364.485745,135.388374 C390.653498,137.539894 415.451373,144.47267 438.072442,155.247446 C440.712801,156.504006 443.870931,155.524974 445.332979,152.99287 L467.390193,114.78079 C468.936277,112.103142 472.358261,111.186486 475.034765,112.732326 L486.378736,119.285422 C489.101322,120.858382 490.034756,124.341494 488.461565,127.06615 L466.415193,165.259246 C464.956761,167.785926 465.681457,171.00507 468.076939,172.669334 C478.979039,180.243046 489.153731,188.789462 498.448302,198.208238 C505.282334,205.132878 516.236848,205.758446 523.697985,199.514518 L598.942813,136.54911 C606.774437,129.996014 607.328846,117.932793 600.540778,110.252572 C527.712387,33.1150137 429.038665,-5.37813683 326.438782,0.657704929 C157.859256,10.2263523 15.3513223,142.677458 0.993523418,320.778886 C-12.8907347,527.590993 147.240892,692.810467 346.893287,694.512374 C447.707324,693.362657 536.731048,651.504827 598.030162,586.80439 C606.416602,577.99943 605.55094,563.909686 596.225647,556.107262 L522.029011,494.018734 C515.509435,488.563094 505.877817,489.052158 499.969088,495.165006 C490.249817,505.21839 479.538376,514.30359 468.016399,522.303086 C465.65435,523.942038 464.940493,527.115982 466.379047,529.606502 L488.474212,567.885478 Z" id="Fill-1"></path>
                <path d="M348.875725,380.094303 C328.895016,381.104975 312.481774,364.685623 313.492918,344.695471 C314.35858,327.577327 328.260679,313.667479 345.370607,312.798735 C365.354931,311.783543 381.773594,328.209223 380.757932,348.202991 C379.88956,365.320231 365.986557,379.228271 348.875725,380.094303 M374.079323,246.838375 C318.153759,232.641055 267.007408,264.225911 250.07007,312.011351 C249.144769,314.623007 250.254407,317.524847 252.653502,318.909775 L291.933596,341.598367 C295.663714,343.752599 295.663714,349.139535 291.933596,351.293767 L252.610129,374.007671 C250.239046,375.376327 249.136637,378.242911 250.051094,380.825639 C264.19988,420.817695 302.303468,449.475399 347.125425,449.475399 C413.008814,449.475399 464.441612,387.584847 446.503068,318.748863 C438.31723,287.337575 405.529602,254.822503 374.079323,246.838375" id="Fill-3"></path>
            </g>
            <g id="Group" transform="translate(720.000000, 141.000000)">
                <path d="M188.574651,-5.68434189e-14 C267.782551,-0.110825283 324.45206,33.6788874 349.179184,101.383607 C350.665176,105.450703 348.572859,109.942408 344.48762,111.375339 L278.64571,134.484201 C274.711555,135.864428 270.37782,133.766244 268.974329,129.838364 C255.197832,91.2864695 230.644653,68.7871746 187.009142,68.8488274 C118.778703,68.9442898 85.2300527,124.073827 85.3374032,200.645612 C85.4437592,276.655561 119.148466,332.252466 187.966342,332.155015 C227.875438,332.100323 253.625362,313.001876 267.950535,274.876579 C269.453426,270.875113 273.852761,268.785879 277.883328,270.207871 L341.922172,292.797656 C346.271807,294.332015 348.384007,299.245346 346.535209,303.471546 C320.123303,363.861459 267.734839,400.889933 186.93857,401.004804 C73.5468668,401.163393 0.178571403,327.457469 -2.84217094e-14,200.765934 C-0.177269672,74.6123699 72.3968382,0.163629123 188.574651,-5.68434189e-14" id="Fill-6"></path>
                <path d="M1542.89117,388.073907 C1544.13662,392.07935 1541.92702,396.507413 1537.98888,397.947304 C1522.47393,403.618368 1503.01785,407.010266 1484.00609,407.036488 C1430.85724,407.111695 1391.22645,383.994878 1391.136,319.50207 L1390.96404,197.364887 C1390.95808,192.971628 1387.39368,189.414659 1383.00131,189.42162 L1354.23765,189.461396 C1349.84627,189.467362 1346.28088,185.910393 1346.27392,181.517134 L1346.21327,138.030032 C1346.20733,133.636773 1349.76278,130.06986 1354.15416,130.063894 L1373.27923,130.037045 C1387.15513,130.017157 1390.85968,122.658597 1390.84079,109.437054 L1390.76823,58.2294307 C1390.76425,55.1010482 1392.59217,52.2620362 1395.43892,50.9713049 L1460.94984,21.2824979 C1466.20896,18.8979266 1472.17381,22.7402883 1472.18176,28.5167581 L1472.31296,121.942629 C1472.31893,126.335888 1475.88432,129.891863 1480.2757,129.885896 L1522.59022,129.827227 C1526.9816,129.820266 1530.54699,133.377235 1530.55296,137.770494 L1530.61359,181.25859 C1530.62055,185.651849 1527.0651,189.217768 1522.67372,189.223734 L1480.3592,189.284393 C1475.96781,189.290359 1472.41336,192.857272 1472.41932,197.250531 L1472.57538,308.642227 C1472.61414,335.780398 1482.206,340.862777 1495.80756,340.843883 C1504.34382,340.83195 1510.75794,338.407603 1516.88977,335.418437 C1521.28115,333.277493 1526.54724,335.505944 1527.99844,340.172663 L1542.89117,388.073907 Z" id="Fill-8"></path>
                <path d="M557.521416,266.924163 C557.457452,221.468149 540.018157,186.141094 499.630958,186.197639 C459.803363,186.254456 442.463462,221.630237 442.526732,267.08625 C442.590691,312.543259 460.030981,347.873297 499.857582,347.818732 C540.244786,347.76093 557.584681,312.381171 557.521416,266.924163 M639.419068,266.809807 C639.541917,354.353802 583.521472,408.305969 499.943065,408.42468 C416.922278,408.540648 360.752733,354.745596 360.63007,267.201601 C360.50722,179.656612 416.524687,125.704444 499.545474,125.587717 C583.123881,125.47076 639.29541,179.264818 639.419068,266.809807" id="Fill-10"></path>
                <path d="M742.850837,274.506463 C742.922399,325.574871 777.169819,345.728376 804.655219,345.690695 C840.555621,345.639875 862.945904,311.937669 862.882561,266.480661 C862.818676,221.587477 840.331975,187.384094 804.432568,187.433706 C776.38557,187.474585 742.757403,208.287377 742.829728,259.352801 L742.850837,274.506463 Z M945.341919,266.364316 C945.464738,353.909305 893.371487,407.856501 827.180687,407.948272 C781.744094,408.012621 754.788475,386.164659 740.729692,361.494588 L740.772431,391.66568 C740.779392,396.386096 736.958549,400.218514 732.240151,400.225475 L672.051966,400.309999 C666.950883,400.317954 662.808988,396.185228 662.801038,391.079978 L662.27421,15.8898666 C662.267274,11.2549681 666.017539,7.491164 670.650459,7.4851976 L734.623703,7.39469317 C739.26954,7.3887408 743.042671,11.1515505 743.048638,15.801365 L743.263334,167.882915 C758.373744,143.72695 788.078695,125.167468 826.783096,125.113771 C892.973896,125.020297 945.219226,179.380169 945.341919,266.364316 L945.341919,266.364316 Z" id="Fill-12"></path>
                <path d="M1131.59523,305.397898 L1131.56732,285.196661 C1077.15612,285.27323 1041.26864,293.739552 1041.31329,325.726417 C1041.33623,342.000768 1057.05396,349.835646 1076.12537,349.808934 C1104.17236,349.769021 1131.63491,333.456883 1131.59523,305.397898 M1133.92602,366.000613 C1118.25401,391.277267 1094.71668,407.584433 1054.89008,407.640454 C997.675871,407.720666 962.85493,378.586734 962.787152,330.325518 C962.686946,259.054879 1042.86895,236.49592 1131.49774,236.37162 L1131.47389,218.973598 C1131.44605,198.771367 1119.08498,184.199429 1093.28138,184.235227 C1070.06311,184.268042 1056.85517,195.440127 1053.00848,208.518476 C1051.62885,213.208066 1046.92635,216.098787 1042.09563,215.36492 L986.700394,206.949312 C979.885701,205.914142 975.512211,199.152222 977.340132,192.503663 C989.337414,148.861435 1037.44184,124.828776 1095.44129,124.746796 C1160.51188,124.654756 1210.47603,153.768799 1210.57742,225.599285 L1210.76826,361.964343 C1210.78317,372.106229 1211.96302,381.076711 1213.70745,388.576476 C1215.01452,394.199809 1210.73745,399.563602 1204.96742,399.572552 L1146.65885,399.654093 C1141.56969,399.662048 1137.17732,396.083202 1136.17141,391.093303 C1134.82358,384.416901 1133.93795,375.100367 1133.92602,366.000613" id="Fill-14"></path>
                <path d="M1253.98998,6.66998846 L1317.505,6.58047364 C1322.27111,6.57353166 1326.14066,10.4337925 1326.14761,15.2019406 L1326.67543,390.761969 C1326.68237,395.530117 1322.82376,399.400322 1318.05765,399.407283 L1254.54263,399.496798 C1249.77553,399.503739 1245.90598,395.643478 1245.90002,390.87533 L1245.3722,15.3153023 C1245.36526,10.5471541 1249.22387,6.67694926 1253.98998,6.66998846" id="Fill-16"></path>
            </g>
        </g>
    </g>
</svg>
