<?xml version="1.0" encoding="UTF-8"?>
<svg width="150px" height="28px" viewBox="0 0 150 28" version="1.1" xmlns="http://www.w3.org/2000/svg" xmlns:xlink="http://www.w3.org/1999/xlink">
    <!-- Generator: sketchtool 51.2 (57519) - http://www.bohemiancoding.com/sketch -->
    <title>F4E6E585-B755-49E8-8DF5-E8B529CEDB0F</title>
    <desc>Created with sketchtool.</desc>
    <defs></defs>
    <g id="Page-1" stroke="none" stroke-width="1" fill="none" fill-rule="evenodd">
        <g id="Desktop" transform="translate(-26.000000, -60.000000)" fill="#FFFFFF" fill-rule="nonzero">
            <path d="M114.994881,87.3777778 L114.994881,73.402462 C114.994881,71.4117595 113.4238,69.7979763 111.485775,69.7979763 C109.547749,69.7979763 107.976668,71.4117595 107.976668,73.402462 L107.976668,87.3777778 L100.893031,87.3777778 L100.900785,63.9407407 L107.033911,63.9407407 C107.529383,63.9407407 107.931043,64.3533181 107.931043,64.862258 C108.261884,64.6375175 108.593449,64.3710039 108.93946,64.2036771 C110.152343,63.5925083 111.468441,63.2990664 112.92491,63.2990664 C118.330962,63.2990664 121.41522,66.1550037 121.921784,71.5285275 C122.43646,69.7447691 123.315124,68.1827515 124.563901,66.845794 C126.694205,64.4704884 129.565921,63.2990664 133.121776,63.2990664 C136.634657,63.2990664 139.502761,64.4690152 141.671808,66.8371329 C142.299363,67.5234051 142.834771,68.2643559 143.277843,69.0589055 L141.543994,63.9407407 L149.250769,63.9407407 L152.501852,76.017372 L155.718545,63.9407407 L161.825449,63.9407407 L165.044982,76.017372 L168.293224,63.9407407 L176,63.9407407 L168.134632,87.3777778 L162.051563,87.3777778 L158.788088,75.3577925 L155.492928,87.3777778 L149.412202,87.3777778 L144.70061,73.3192774 C144.813379,74.3432388 144.869763,75.1268027 144.869763,75.6699692 C144.869763,79.17041 143.803999,82.1298232 141.711699,84.421788 C139.535858,86.7973233 136.621271,88 133.121776,88 C129.596399,88 126.716503,86.8069411 124.539285,84.4298289 C123.363258,83.1689836 122.516382,81.6977503 121.996205,80.0306694 L121.996205,87.3777778 L114.994881,87.3777778 Z M61.8256541,63.9352622 L67.8337685,63.9352622 L72.712538,71.138511 L77.5461335,63.9352622 L83.5542479,63.9352622 L75.5133128,74.9680864 L84.5392523,87.3777778 L78.4859642,87.3777778 L72.712538,78.7976618 L66.8906537,87.3777778 L60.8373656,87.3777778 L69.8665889,74.9680864 L61.8256541,63.9352622 Z M93.3680288,63.9352622 L97.9757555,63.9352622 L97.9757555,68.2980097 L93.3680288,68.2980097 L93.3680288,81.4054638 C93.3680288,81.952546 93.4583762,82.3628577 93.729419,82.6819889 C94.0004618,82.95553 94.361852,83.0923006 94.9039376,83.0923006 L97.9757555,83.0923006 L97.9757555,87.3777778 L94.0456355,87.3777778 C92.0128151,87.3777778 90.5220797,86.8306956 89.5734302,85.7365312 C88.6699544,84.7335472 88.2182165,83.3202515 88.2182165,81.4054638 L88.2182165,68.2980097 L85.8128156,68.2980097 C85.1450276,68.2980097 84.6036782,67.7419463 84.6036782,67.0560073 L84.6036782,63.9352622 L88.2182165,63.9352622 L88.2182165,60.0203028 L92.1542504,60.0047852 C92.8220336,60.0021526 93.3654569,60.5560777 93.3680198,61.2420116 L93.3680288,63.9352622 Z M34.7730117,60 L34.7730117,63.9352622 L39.3807384,63.9352622 L39.3807384,67.0560073 C39.3807384,67.7419463 38.8393891,68.2980097 38.1716009,68.2980097 L34.7730117,68.2980097 L34.7730117,81.4054638 C34.7730117,81.952546 34.8633593,82.3628577 35.134402,82.6819889 C35.4054448,82.95553 35.7668351,83.0923006 36.3089206,83.0923006 L39.3807384,83.0923006 L39.3807384,87.3777778 L35.4506186,87.3777778 C33.417798,87.3777778 31.9270629,86.8306956 30.9784132,85.7365312 C30.0749374,84.7335472 29.6231995,83.3202515 29.6231995,81.4054638 L29.6231995,68.2980097 L26,68.2980097 L26,63.9352622 L29.6231995,63.9352622 L29.6231995,61.2575475 C29.6231995,60.5734693 30.1617246,60.0181797 30.8276962,60.0155542 L34.7730117,60 Z M57.9609407,79.4964051 L62.0533688,81.6142328 C61.6282553,82.4592946 61.1360489,83.2046991 60.5766101,83.8501426 C59.6980871,84.8637245 58.7550884,85.6751987 57.7478042,86.2836849 C56.7438671,86.8901492 55.710572,87.3280385 54.6487395,87.5967412 C53.5939074,87.8636724 52.6249016,87.9973409 51.7406299,87.9973409 C50.1145811,87.9973409 48.5887334,87.6643991 47.1667733,86.9989709 C45.7506014,86.3362514 44.5183239,85.4395295 43.4722373,84.310261 C42.4275529,83.1825064 41.6027106,81.8715291 40.998787,80.3794621 C40.3932896,78.8835066 40.0903446,77.3022756 40.0903446,75.6387972 C40.0903446,73.8930299 40.4000828,72.2634864 41.0194559,70.7531394 C41.6376069,69.2457725 42.4772893,67.9402492 43.5374045,66.8389379 C44.5979593,65.7371699 45.8381034,64.8750785 47.2554192,64.2541591 C48.6749972,63.6322486 50.1976821,63.3211776 51.8204397,63.3211776 C53.3629726,63.3211776 54.8385204,63.6252773 56.2440569,64.2329414 C57.646388,64.8392197 58.8851957,65.6791839 59.9583227,66.7515009 C61.0324706,67.8248383 61.8863756,69.0958279 62.5187618,70.5620877 C63.1533584,72.0334731 63.4707251,73.6313534 63.4707251,75.3523283 C63.4707251,75.7425476 63.4571873,76.1733378 63.43013,76.6450612 C63.4020593,77.1344531 63.3744287,77.4418351 63.3432455,77.6017345 L63.2792261,77.9300059 L45.1595496,77.9300059 C45.4047943,78.7583287 45.7324455,79.47923 46.1421105,80.0932637 C46.6353289,80.832533 47.2020788,81.4398821 47.8431177,81.9168279 C48.486049,82.3951817 49.1580508,82.7431552 49.8603599,82.9618016 C50.5683658,83.1822216 51.2481434,83.292151 51.9002496,83.292151 C53.3628369,83.292151 54.5939343,82.9280275 55.6028972,82.199882 C56.6296865,81.4588715 57.3791429,80.6269148 57.854306,79.7036105 L57.9609407,79.4964051 Z M134.918081,79.834122 L136.412117,79.834122 C138.609965,79.834122 140.391672,77.9849052 140.391672,75.7037807 C140.391672,73.4226562 138.609965,71.5734394 136.412117,71.5734394 L130.033018,71.5734394 C127.83517,71.5734394 126.053463,73.4226562 126.053463,75.7037807 C126.053463,77.7685276 127.513191,79.4794184 129.419981,79.7854161 C130.237182,79.9165588 129.792793,80.858048 129.792793,81.6410001 C129.792793,82.1021535 130.58525,81.6953896 131.753781,80.7889441 C132.922312,79.8824987 133.927068,79.834122 134.918081,79.834122 Z M57.7049336,71.9763132 C57.3550997,71.224761 56.8809194,70.563244 56.2807835,69.9896244 C55.6775408,69.4130351 54.9729736,68.9449941 54.1654211,68.5847872 C53.3671239,68.2287087 52.5060629,68.0507756 51.5789798,68.0507756 C50.6259614,68.0507756 49.758906,68.2285205 48.9747524,68.5838423 C48.1797044,68.9441006 47.4810458,69.4124358 46.8771761,69.9896244 C46.2770404,70.563244 45.8028601,71.224761 45.4530261,71.9763132 C45.1697374,72.5849055 44.9852463,73.1952862 44.8989268,73.808547 L58.259033,73.808547 C58.1727134,73.1952862 57.9882221,72.5849055 57.7049336,71.9763132 Z" id="Logo"></path>
        </g>
    </g>
</svg>